<svg width="48" height="48" viewBox="0 0 48 48" fill="none" xmlns="http://www.w3.org/2000/svg">
<g clip-path="url(#clip0_22_75)">
<rect width="48" height="48" fill="white"/>
<path d="M30.5 38.5C30.5 39.6457 29.4516 41.1445 26.6771 42.4451C24.0221 43.6896 20.2488 44.5 16 44.5C11.7512 44.5 7.97793 43.6896 5.32294 42.4451C2.54839 41.1445 1.5 39.6457 1.5 38.5C1.5 37.3543 2.54839 35.8555 5.32294 34.5549C7.97793 33.3104 11.7512 32.5 16 32.5C20.2488 32.5 24.0221 33.3104 26.6771 34.5549C29.4516 35.8555 30.5 37.3543 30.5 38.5Z" stroke="#152C5B" stroke-width="3"/>
<path d="M26 13.4737C26 14.5624 25.7161 16.7049 25.1402 19.4091C24.5732 22.0706 23.7525 25.1414 22.7429 28.0413C21.7259 30.9627 20.5516 33.6097 19.3087 35.4869C18.6872 36.4256 18.1005 37.0918 17.5765 37.5065C17.0586 37.9164 16.7087 38 16.5 38C16.2913 38 15.9414 37.9164 15.4235 37.5065C14.8995 37.0918 14.3128 36.4256 13.6913 35.4869C12.4484 33.6097 11.2741 30.9627 10.2571 28.0413C9.24746 25.1414 8.42675 22.0706 7.85985 19.4091C7.28385 16.7049 7 14.5624 7 13.4737C7 9.69126 10.8732 6 16.5 6C22.1268 6 26 9.69126 26 13.4737Z" fill="white" stroke="#152C5B" stroke-width="4"/>
<path d="M19.6852 16.9231C19.6852 18.6225 18.2804 20.0385 16.5 20.0385C14.7196 20.0385 13.3148 18.6225 13.3148 16.9231C13.3148 15.2236 14.7196 13.8077 16.5 13.8077C18.2804 13.8077 19.6852 15.2236 19.6852 16.9231Z" stroke="#FF498B" stroke-width="3"/>
</g>
<defs>
<clipPath id="clip0_22_75">
<rect width="48" height="48" fill="white"/>
</clipPath>
</defs>
</svg>
