<svg width="48" height="48" viewBox="0 0 48 48" fill="none" xmlns="http://www.w3.org/2000/svg">
<g clip-path="url(#clip0_23_96)">
<rect width="48" height="48" fill="white"/>
<mask id="path-1-inside-1_23_96" fill="white">
<path fill-rule="evenodd" clip-rule="evenodd" d="M18.7932 6C18.0062 6 17.2923 6.46157 16.9693 7.17927L14.35 13H8C3.58172 13 0 16.5817 0 21V35C0 39.4183 3.58172 43 8 43H40C44.4183 43 48 39.4183 48 35V21C48 16.5817 44.4183 13 40 13H33.65L31.0307 7.17927C30.7077 6.46157 29.9939 6 29.2068 6H18.7932Z"/>
</mask>
<path d="M16.9693 7.17927L19.7051 8.41036H19.7051L16.9693 7.17927ZM14.35 13V16H16.2898L17.0858 14.2311L14.35 13ZM33.65 13L30.9142 14.2311L31.7102 16H33.65V13ZM31.0307 7.17927L33.7664 5.94818V5.94818L31.0307 7.17927ZM19.7051 8.41036C19.5436 8.76921 19.1867 9 18.7932 9V3C16.8256 3 15.041 4.15392 14.2336 5.94818L19.7051 8.41036ZM17.0858 14.2311L19.7051 8.41036L14.2336 5.94818L11.6142 11.7689L17.0858 14.2311ZM8 16H14.35V10H8V16ZM3 21C3 18.2386 5.23858 16 8 16V10C1.92487 10 -3 14.9249 -3 21H3ZM3 35V21H-3V35H3ZM8 40C5.23858 40 3 37.7614 3 35H-3C-3 41.0751 1.92487 46 8 46V40ZM40 40H8V46H40V40ZM45 35C45 37.7614 42.7614 40 40 40V46C46.0751 46 51 41.0751 51 35H45ZM45 21V35H51V21H45ZM40 16C42.7614 16 45 18.2386 45 21H51C51 14.9249 46.0751 10 40 10V16ZM33.65 16H40V10H33.65V16ZM28.2949 8.41036L30.9142 14.2311L36.3858 11.7689L33.7664 5.94818L28.2949 8.41036ZM29.2068 9C28.8133 9 28.4564 8.76921 28.2949 8.41036L33.7664 5.94818C32.959 4.15393 31.1744 3 29.2068 3V9ZM18.7932 9H29.2068V3H18.7932V9Z" fill="#152C5B" mask="url(#path-1-inside-1_23_96)"/>
<path d="M42 20H34" stroke="#152C5B" stroke-width="3" stroke-linecap="round"/>
<circle cx="24" cy="28" r="4.5" stroke="#FF498B" stroke-width="3"/>
</g>
<defs>
<clipPath id="clip0_23_96">
<rect width="48" height="48" fill="white"/>
</clipPath>
</defs>
</svg>
